<svg xmlns="http://www.w3.org/2000/svg" viewBox="0 0 512 512" width="512" height="512" role="img" aria-label="TvinnHugr logo: two twined strands sharing a central workspace core">
  <defs>
    <linearGradient id="bg" x1="0" y1="0" x2="1" y2="1">
      <stop offset="0" stop-color="#151f42"/>
      <stop offset="0.55" stop-color="#122a3c"/>
      <stop offset="1" stop-color="#0c2b30"/>
    </linearGradient>
    <radialGradient id="bgGlow" cx="0.5" cy="0.42" r="0.62">
      <stop offset="0" stop-color="#38d6c8" stop-opacity="0.18"/>
      <stop offset="1" stop-color="#38d6c8" stop-opacity="0"/>
    </radialGradient>
    <linearGradient id="zh" x1="0" y1="0" x2="0" y2="1">
      <stop offset="0" stop-color="#7ff0dc"/>
      <stop offset="1" stop-color="#12b3a6"/>
    </linearGradient>
    <linearGradient id="en" x1="0" y1="0" x2="0" y2="1">
      <stop offset="0" stop-color="#b3c0ff"/>
      <stop offset="1" stop-color="#5b63e8"/>
    </linearGradient>
  </defs>

  <rect x="40" y="40" width="432" height="432" rx="116" fill="url(#bg)"/>
  <rect x="40" y="40" width="432" height="432" rx="116" fill="url(#bgGlow)"/>
  <rect x="41.5" y="41.5" width="429" height="429" rx="114.5" fill="none" stroke="#7ff0dc" stroke-opacity="0.16" stroke-width="3"/>

  <!-- broadcast ring around the shared workspace core -->
  <circle cx="256.0" cy="256.0" r="96" fill="none" stroke="#8be7ff" stroke-opacity="0.20" stroke-width="2" stroke-dasharray="3 12" stroke-linecap="round"/>

  <!-- twined strands: draw B, then A on top, then B's lower bulge on top -> weave -->
  <g fill="none" stroke-linecap="round" stroke-linejoin="round">
    <path d="M 256.00 132.00 L 249.58 134.76 L 243.20 137.51 L 236.87 140.27 L 230.64 143.02 L 224.53 145.78 L 218.58 148.53 L 212.81 151.29 L 207.25 154.04 L 201.92 156.80 L 196.86 159.56 L 192.09 162.31 L 187.63 165.07 L 183.50 167.82 L 179.73 170.58 L 176.33 173.33 L 173.31 176.09 L 170.70 178.84 L 168.50 181.60 L 166.73 184.36 L 165.40 187.11 L 164.50 189.87 L 164.06 192.62 L 164.06 195.38 L 164.50 198.13 L 165.40 200.89 L 166.73 203.64 L 168.50 206.40 L 170.70 209.16 L 173.31 211.91 L 176.33 214.67 L 179.73 217.42 L 183.50 220.18 L 187.63 222.93 L 192.09 225.69 L 196.86 228.44 L 201.92 231.20 L 207.25 233.96 L 212.81 236.71 L 218.58 239.47 L 224.53 242.22 L 230.64 244.98 L 236.87 247.73 L 243.20 250.49 L 249.58 253.24 L 256.00 256.00 L 262.42 258.76 L 268.80 261.51 L 275.13 264.27 L 281.36 267.02 L 287.47 269.78 L 293.42 272.53 L 299.19 275.29 L 304.75 278.04 L 310.08 280.80 L 315.14 283.56 L 319.91 286.31 L 324.37 289.07 L 328.50 291.82 L 332.27 294.58 L 335.67 297.33 L 338.69 300.09 L 341.30 302.84 L 343.50 305.60 L 345.27 308.36 L 346.60 311.11 L 347.50 313.87 L 347.94 316.62 L 347.94 319.38 L 347.50 322.13 L 346.60 324.89 L 345.27 327.64 L 343.50 330.40 L 341.30 333.16 L 338.69 335.91 L 335.67 338.67 L 332.27 341.42 L 328.50 344.18 L 324.37 346.93 L 319.91 349.69 L 315.14 352.44 L 310.08 355.20 L 304.75 357.96 L 299.19 360.71 L 293.42 363.47 L 287.47 366.22 L 281.36 368.98 L 275.13 371.73 L 268.80 374.49 L 262.42 377.24 L 256.00 380.00"   stroke="url(#en)" stroke-width="32"/>
    <path d="M 256.00 132.00 L 262.42 134.76 L 268.80 137.51 L 275.13 140.27 L 281.36 143.02 L 287.47 145.78 L 293.42 148.53 L 299.19 151.29 L 304.75 154.04 L 310.08 156.80 L 315.14 159.56 L 319.91 162.31 L 324.37 165.07 L 328.50 167.82 L 332.27 170.58 L 335.67 173.33 L 338.69 176.09 L 341.30 178.84 L 343.50 181.60 L 345.27 184.36 L 346.60 187.11 L 347.50 189.87 L 347.94 192.62 L 347.94 195.38 L 347.50 198.13 L 346.60 200.89 L 345.27 203.64 L 343.50 206.40 L 341.30 209.16 L 338.69 211.91 L 335.67 214.67 L 332.27 217.42 L 328.50 220.18 L 324.37 222.93 L 319.91 225.69 L 315.14 228.44 L 310.08 231.20 L 304.75 233.96 L 299.19 236.71 L 293.42 239.47 L 287.47 242.22 L 281.36 244.98 L 275.13 247.73 L 268.80 250.49 L 262.42 253.24 L 256.00 256.00 L 249.58 258.76 L 243.20 261.51 L 236.87 264.27 L 230.64 267.02 L 224.53 269.78 L 218.58 272.53 L 212.81 275.29 L 207.25 278.04 L 201.92 280.80 L 196.86 283.56 L 192.09 286.31 L 187.63 289.07 L 183.50 291.82 L 179.73 294.58 L 176.33 297.33 L 173.31 300.09 L 170.70 302.84 L 168.50 305.60 L 166.73 308.36 L 165.40 311.11 L 164.50 313.87 L 164.06 316.62 L 164.06 319.38 L 164.50 322.13 L 165.40 324.89 L 166.73 327.64 L 168.50 330.40 L 170.70 333.16 L 173.31 335.91 L 176.33 338.67 L 179.73 341.42 L 183.50 344.18 L 187.63 346.93 L 192.09 349.69 L 196.86 352.44 L 201.92 355.20 L 207.25 357.96 L 212.81 360.71 L 218.58 363.47 L 224.53 366.22 L 230.64 368.98 L 236.87 371.73 L 243.20 374.49 L 249.58 377.24 L 256.00 380.00"   stroke="url(#zh)" stroke-width="32"/>
    <path d="M 256.00 256.00 L 259.21 257.38 L 262.42 258.76 L 265.62 260.13 L 268.80 261.51 L 271.98 262.89 L 275.13 264.27 L 278.26 265.64 L 281.36 267.02 L 284.43 268.40 L 287.47 269.78 L 290.46 271.16 L 293.42 272.53 L 296.33 273.91 L 299.19 275.29 L 302.00 276.67 L 304.75 278.04 L 307.45 279.42 L 310.08 280.80 L 312.64 282.18 L 315.14 283.56 L 317.56 284.93 L 319.91 286.31 L 322.18 287.69 L 324.37 289.07 L 326.48 290.44 L 328.50 291.82 L 330.43 293.20 L 332.27 294.58 L 334.02 295.96 L 335.67 297.33 L 337.23 298.71 L 338.69 300.09 L 340.05 301.47 L 341.30 302.84 L 342.45 304.22 L 343.50 305.60 L 344.44 306.98 L 345.27 308.36 L 345.99 309.73 L 346.60 311.11 L 347.10 312.49 L 347.50 313.87 L 347.78 315.24 L 347.94 316.62 L 348.00 318.00 L 347.94 319.38 L 347.78 320.76 L 347.50 322.13 L 347.10 323.51 L 346.60 324.89 L 345.99 326.27 L 345.27 327.64 L 344.44 329.02 L 343.50 330.40 L 342.45 331.78 L 341.30 333.16 L 340.05 334.53 L 338.69 335.91 L 337.23 337.29 L 335.67 338.67 L 334.02 340.04 L 332.27 341.42 L 330.43 342.80 L 328.50 344.18 L 326.48 345.56 L 324.37 346.93 L 322.18 348.31 L 319.91 349.69 L 317.56 351.07 L 315.14 352.44 L 312.64 353.82 L 310.08 355.20 L 307.45 356.58 L 304.75 357.96 L 302.00 359.33 L 299.19 360.71 L 296.33 362.09 L 293.42 363.47 L 290.46 364.84 L 287.47 366.22 L 284.43 367.60 L 281.36 368.98 L 278.26 370.36 L 275.13 371.73 L 271.98 373.11 L 268.80 374.49 L 265.62 375.87 L 262.42 377.24 L 259.21 378.62 L 256.00 380.00" stroke="url(#en)" stroke-width="32"/>
  </g>

  <!-- top & bottom broadcast nodes -->
  <circle cx="256.0" cy="132.0" r="27" fill="#7ff0dc" fill-opacity="0.16"/>
  <circle cx="256.0" cy="132.0" r="14" fill="#e9fff9"/>
  <circle cx="256.0" cy="380.0" r="27" fill="#b3c0ff" fill-opacity="0.16"/>
  <circle cx="256.0" cy="380.0" r="14" fill="#eef0ff"/>

  <!-- shared workspace core -->
  <circle cx="256.0" cy="256.0" r="66" fill="#8be7ff" fill-opacity="0.14"/>
  <circle cx="256.0" cy="256.0" r="45" fill="#c6f4ff" fill-opacity="0.22"/>
  <circle cx="256.0" cy="256.0" r="27" fill="#ffffff"/>
  <circle cx="256.0" cy="256.0" r="11" fill="#3fd0e6"/>
</svg>
